<svg width="120" height="24" viewBox="0 0 120 24" fill="none" xmlns="http://www.w3.org/2000/svg">
<g clip-path="url(#clip0)">
<path d="M7.33953 10.0845L12.0008 5.42516L16.6639 10.0883L19.3746 7.37572L12.0008 0L4.62695 7.37383L7.33953 10.0845Z" fill="#FCFCFC"/>
<path d="M-0.000976562 12.0005L2.71061 9.2889L5.4222 12.0005L2.71061 14.7121L-0.000976562 12.0005Z" fill="#FCFCFC"/>
<path d="M7.33942 13.9155L12.0007 18.5767L16.6638 13.9136L19.3764 16.6224L19.3745 16.6243L12.0007 24L4.62684 16.6281L4.62305 16.6243L7.33942 13.9155Z" fill="#FCFCFC"/>
<path d="M18.5752 12.001L21.2868 9.28938L23.9984 12.001L21.2868 14.7126L18.5752 12.001Z" fill="#FCFCFC"/>
<path d="M14.7509 11.999L12.0004 9.24658L9.96642 11.2805L9.73136 11.5137L9.24989 11.9952L9.24609 11.999L9.24989 12.0047L12.0004 14.7533L14.7509 12.0009L14.7528 11.999H14.7509Z" fill="#FCFCFC"/>
<path d="M28.2295 5.81567H34.1286C35.5919 5.81567 36.699 6.19479 37.4496 6.95302C37.7324 7.23311 37.9554 7.56774 38.1049 7.9366C38.2545 8.30546 38.3276 8.70087 38.3197 9.09883V9.13484C38.3248 9.46085 38.2794 9.78568 38.1851 10.0978C38.1011 10.3665 37.9792 10.6218 37.823 10.856C37.6775 11.0769 37.5013 11.276 37.2999 11.4475C37.103 11.6169 36.8874 11.7632 36.6573 11.8834C37.321 12.1146 37.9179 12.5052 38.3955 13.0208C38.8176 13.501 39.0286 14.1645 39.0286 15.0112V15.0472C39.0406 15.576 38.9256 16.0999 38.6931 16.575C38.4679 17.0128 38.1377 17.3879 37.7321 17.6669C37.2735 17.9743 36.7629 18.1959 36.2251 18.3208C35.5861 18.4724 34.9311 18.5456 34.2745 18.5388H28.2295V5.81567ZM33.5371 10.9603C34.0475 10.985 34.5554 10.8751 35.01 10.6418C35.1873 10.5383 35.332 10.3872 35.4278 10.2056C35.5237 10.024 35.5667 9.81922 35.5521 9.61443V9.57841C35.5615 9.38971 35.5232 9.2017 35.4407 9.03173C35.3582 8.86177 35.2342 8.71534 35.0801 8.60598C34.7655 8.3823 34.3112 8.27046 33.7172 8.27046H30.9572V10.9603H33.5371ZM34.2821 16.0878C34.7906 16.1163 35.2967 16 35.7417 15.7523C35.9151 15.641 36.0554 15.4851 36.1481 15.3011C36.2407 15.1171 36.2824 14.9116 36.2687 14.706V14.67C36.2755 14.4745 36.2343 14.2804 36.1487 14.1046C36.0631 13.9288 35.9357 13.7767 35.7777 13.6615C35.4517 13.4088 34.9247 13.2824 34.1968 13.2824H30.9572V16.0878H34.2821Z" fill="#FCFCFC"/>
<path d="M42.543 5.81567H45.3427V18.5426H42.543V5.81567Z" fill="#FCFCFC"/>
<path d="M49.5801 5.81567H52.1619L58.1292 13.6482V5.81567H60.8929V18.5426H58.5102L52.3476 10.4523V18.5426H49.5801V5.81567Z" fill="#FCFCFC"/>
<path d="M69.3696 5.72461H71.9476L77.4011 18.5426H74.4782L73.3143 15.6878H67.9327L66.7688 18.5426H63.9141L69.3696 5.72461ZM72.3153 13.216L70.6206 9.08738L68.9336 13.216H72.3153Z" fill="#FCFCFC"/>
<path d="M80.4277 5.81567H83.0095L88.973 13.6482V5.81567H91.7368V18.5426H89.354L83.1915 10.4523V18.5426H80.4277V5.81567Z" fill="#FCFCFC"/>
<path d="M101.814 18.7663C100.922 18.7739 100.037 18.6011 99.2131 18.2582C98.4375 17.938 97.7338 17.4658 97.1436 16.8693C96.5534 16.2729 96.0885 15.5644 95.7763 14.7855C95.447 13.9708 95.2802 13.0996 95.2854 12.2208V12.1848C95.2707 10.4527 95.9372 8.7841 97.1412 7.53871C97.7336 6.93037 98.4428 6.44808 99.2263 6.12082C100.079 5.76779 100.994 5.59172 101.916 5.60332C102.462 5.59925 103.006 5.64813 103.543 5.74928C104.001 5.83603 104.45 5.97007 104.881 6.14925C105.272 6.31391 105.644 6.52114 105.99 6.76721C106.327 7.0072 106.644 7.27476 106.938 7.56715L105.158 9.62196C104.703 9.20235 104.193 8.84709 103.641 8.56612C103.099 8.30712 102.505 8.17734 101.905 8.187C101.405 8.18167 100.91 8.2827 100.453 8.48337C99.9951 8.68404 99.5854 8.97976 99.251 9.35089C98.9193 9.72108 98.6596 10.1499 98.4851 10.6152C98.3025 11.1071 98.2107 11.6279 98.2141 12.1526V12.1886C98.2123 12.7124 98.3041 13.2324 98.4851 13.724C98.6574 14.1911 98.9145 14.6223 99.2434 14.9959C99.5752 15.3717 99.9839 15.6717 100.442 15.8758C100.9 16.0799 101.396 16.1832 101.897 16.1788C102.536 16.1989 103.169 16.0615 103.742 15.7788C104.287 15.4817 104.791 15.1146 105.241 14.687L107.023 16.4878C106.708 16.8292 106.368 17.1461 106.005 17.4356C105.648 17.7175 105.261 17.9585 104.851 18.154C104.413 18.3599 103.952 18.512 103.478 18.607C102.93 18.7169 102.373 18.7702 101.814 18.7663Z" fill="#FCFCFC"/>
<path d="M110.327 5.81567H119.906V8.30647H113.081V10.8883H119.09V13.3791H113.091V16.0518H120V18.5426H110.333L110.327 5.81567Z" fill="#FCFCFC"/>
</g>
<defs>
<clipPath id="clip0">
<rect width="119.998" height="24" fill="white"/>
</clipPath>
</defs>
</svg>
