<svg width="130" height="15" viewBox="0 0 130 15" fill="none" xmlns="http://www.w3.org/2000/svg">
<path d="M115.376 12.8758C116.074 13.6153 119.908 17.1599 125.927 13.0461C130.279 9.65564 130.17 2.3049 129.752 0.0851125C129.606 0.408166 124.551 11.4821 115.376 12.8758ZM129.751 0.0832337C129.698 0.0612045 124.099 -0.702443 118.564 2.86396C115.127 5.07858 114.672 8.31991 114.829 10.4798C122.876 9.57897 129.569 0.33719 129.751 0.0832337Z" fill="white"/>
<path fill-rule="evenodd" clip-rule="evenodd" d="M129.751 0.0832336C129.698 0.0612045 124.099 -0.702443 118.564 2.86396C115.127 5.07858 114.672 8.31991 114.829 10.4798C122.876 9.57897 129.569 0.33719 129.751 0.0832336Z" fill="white"/>
<path d="M9.06498 12.4433H2.79703V9.10369H9.06498C10.632 9.10369 11.4325 9.8534 11.4325 10.8246C11.4325 11.7618 10.649 12.4433 9.06498 12.4433ZM8.86059 7.31462H2.79703V4.50321H8.86059C10.5127 4.50321 11.16 5.08253 11.16 5.88335C11.16 6.61602 10.4105 7.31462 8.86059 7.31462ZM10.4616 8.16656C13.1017 8.08136 14.0555 6.76937 14.0555 5.33811C14.0555 3.77054 12.8121 2.47559 9.78035 2.47559H0.0888672V14.4368H10.0699C12.5566 14.4368 14.4132 13.3975 14.4132 11.1654C14.4132 9.58078 13.3742 8.23471 10.4616 8.16656ZM17.6118 2.47559V14.4368H20.32V2.47559H17.6118ZM31.3024 4.74175H37.2638V2.47559H22.6329V4.74175H28.5942V14.4368H31.3024V4.74175ZM39.5767 2.47559V14.4368H42.2849V9.76821H48.638V7.80874H42.2849V4.53729H52.6065V2.47559H39.5767ZM54.8002 2.47559V14.4368H57.5084V2.47559H54.8002ZM63.858 5.38923L72.8341 14.4368H75.9V2.47559H73.2259V11.0972L64.6074 2.47559H61.1669V14.4368H63.858V5.38923ZM79.5585 2.47559V14.4368H92.8097V12.4263H82.2666V9.13777H88.5857V7.28054H82.2666V4.53729H92.8097V2.47559H79.5585ZM110.946 2.47559H107.369L102.804 6.68418L98.2737 2.47559H94.6458L101.016 8.37102L94.4073 14.4368H97.9841L102.77 10.0238L107.539 14.4368H111.184L104.559 8.35398L110.946 2.47559Z" fill="white"/>
</svg>
