<svg width="98" height="25" viewBox="0 0 98 25" fill="none" xmlns="http://www.w3.org/2000/svg">
<path fill-rule="evenodd" clip-rule="evenodd" d="M1.35379 5.94824H4.91614L2.1463 12.7092C2.1463 12.7092 0.698356 12.6857 0.255623 11.4231C0.131608 11.0482 0.121195 10.6451 0.225687 10.2643L1.35379 5.94824Z" fill="#FCFCFC"/>
<path d="M15.1695 6.09277L10.6398 6.01415L11.6592 2.6588C11.8496 2.03597 11.7335 1.35993 11.346 0.835989C10.9585 0.312044 10.3454 0.00199947 9.69289 0H5.55861L0.831925 16.9418C0.831925 16.9418 -0.861805 24.1871 5.55861 24.8428C5.55861 24.8428 15.7084 26.9135 18.9651 14.6745C18.9651 14.6745 20.684 7.27201 15.1695 6.09277ZM12.0736 14.4953C12.0736 14.4953 11.8924 17.6211 9.52903 18.1698C9.18008 18.2574 8.81137 18.2195 8.48758 18.0629C8.11733 17.8742 7.73447 17.4827 7.74392 16.6619C7.7501 16.4247 7.78826 16.1894 7.85736 15.9623L8.73022 12.7091H11.1125C11.1125 12.7091 12.1917 13.0597 12.0736 14.4953Z" fill="#FCFCFC"/>
<path fill-rule="evenodd" clip-rule="evenodd" d="M19.1829 11.2626C18.7496 6.28932 15.1699 6.09278 15.1699 6.09278L10.6402 6.01416L8.69434 12.7484H11.0703C11.5067 12.772 12.3024 13.4906 12.044 14.7626" fill="#FCFCFC"/>
<path fill-rule="evenodd" clip-rule="evenodd" d="M67.75 23.74C68.0818 22.5207 68.3888 21.3914 68.6962 20.2629C69.2268 18.3131 69.7566 16.3629 70.2887 14.4135C70.4186 13.9375 70.5907 13.47 70.6788 12.9871C70.743 12.6364 70.9155 12.5708 71.2179 12.5949C71.4638 12.6139 71.7129 12.6111 71.9596 12.5956C72.702 12.5495 73.3645 12.6484 73.6038 13.4328C74.2496 13.176 74.8378 12.8381 75.4681 12.7136C76.7608 12.4571 78.03 12.4707 78.9979 13.6182C79.0675 13.7009 79.3617 13.6854 79.4905 13.6101C80.9139 12.7791 82.4483 12.494 84.0729 12.6274C85.2983 12.7283 86.2647 13.7156 86.5361 14.9194C86.8258 16.2043 86.5427 17.4053 86.2252 18.6138C85.7782 20.3149 85.2964 22.0063 84.8254 23.7175H81.5938C81.9433 22.4389 82.2975 21.1943 82.6216 19.9421C82.8648 19.0025 83.0903 18.0575 83.2786 17.1054C83.3327 16.8323 83.2852 16.5084 83.19 16.2423C82.9193 15.4862 82.122 15.2278 81.2914 15.5762C80.1931 16.0374 79.7419 16.9941 79.4426 18.0423C78.9514 19.764 78.4963 21.4962 78.0238 23.2229C77.9793 23.3866 77.9224 23.5464 77.8668 23.721H74.6576C74.9499 22.6379 75.243 21.5866 75.5164 20.5306C75.7983 19.4416 76.0934 18.3546 76.3149 17.2532C76.3869 16.896 76.308 16.4754 76.1904 16.1197C75.907 15.2588 74.5087 15.338 73.8652 15.8303C73.0729 16.437 72.6986 17.2886 72.4476 18.2157C71.9805 19.9428 71.5203 21.6719 71.0408 23.3955C71.0041 23.5286 70.8432 23.7222 70.7357 23.7249C69.7647 23.7505 68.7925 23.74 67.75 23.74Z" fill="white"/>
<path fill-rule="evenodd" clip-rule="evenodd" d="M28.9177 15.5066C28.1912 15.5212 27.6781 15.7654 27.2204 16.3431C26.4878 17.2672 26.2198 18.3636 26.1305 19.5043C26.0836 20.1069 26.4901 20.7168 26.9663 20.798C27.5972 20.9053 28.239 20.8814 28.7413 20.4053C29.8304 19.3739 30.297 18.0783 30.2015 16.6026C30.1507 15.8135 29.7103 15.4912 28.9177 15.5066ZM27.7304 13.3161C28.316 13.1011 28.8283 12.8238 29.3723 12.7315C30.5888 12.525 31.8014 12.4769 32.7496 13.5145C33.2489 14.0614 33.5291 14.7324 33.5526 15.4312C33.6485 18.2867 32.8019 20.7915 30.4098 22.5228C28.6547 23.7931 26.6606 24.073 24.5903 23.352C23.129 22.8432 22.4356 21.3391 22.7721 19.9342C23.3715 17.4333 24.0606 14.954 24.7189 12.4677C25.0126 11.3586 25.3225 10.2537 25.6281 9.13647C26.2195 9.13647 26.7904 9.09225 27.3516 9.14609C28.2598 9.23339 28.6366 9.87409 28.3764 10.7502C28.1589 11.4839 27.9676 12.2254 27.7697 12.9645C27.7431 13.0645 27.7454 13.1722 27.7304 13.3161Z" fill="white"/>
<mask id="mask0" mask-type="alpha" maskUnits="userSpaceOnUse" x="87" y="9" width="11" height="15">
<path d="M87.1299 9.16895H97.9956V23.7589H87.1299V9.16895Z" fill="white"/>
</mask>
<g mask="url(#mask0)">
<path fill-rule="evenodd" clip-rule="evenodd" d="M93.3547 15.5305C92.3628 15.4682 91.7824 16.078 91.3222 16.822C90.8262 17.6228 90.6138 18.528 90.5467 19.4588C90.4819 20.3563 91.0209 20.9522 91.9049 20.8698C92.3543 20.828 92.8681 20.6563 93.2031 20.3694C94.253 19.4704 94.6226 18.2164 94.6594 16.8912C94.6799 16.1689 94.3853 15.4609 93.3547 15.5305ZM90.0376 9.18115C90.6998 9.18115 91.3512 9.14828 91.9972 9.19043C92.6405 9.2318 93.0146 10.0253 92.7971 10.7863C92.5858 11.5252 92.3772 12.2649 92.1736 13.0062C92.1473 13.1033 92.1608 13.2108 92.1546 13.3279C92.7273 13.1207 93.2527 12.8434 93.8103 12.7464C95.0758 12.526 96.327 12.5174 97.263 13.6315C97.7151 14.1697 97.9594 14.8182 97.9866 15.4988C98.0874 18.0184 97.3518 20.2407 95.5078 22.0349C93.7804 23.7158 90.6994 24.2583 88.7014 23.2572C87.465 22.6381 86.978 21.5461 87.1707 20.3126C87.4068 18.7995 87.8193 17.3108 88.2059 15.8251C88.7247 13.8295 89.2908 11.8462 89.8379 9.85823C89.8984 9.63743 89.9674 9.41896 90.0376 9.18115Z" fill="white"/>
</g>
<path fill-rule="evenodd" clip-rule="evenodd" d="M51.8036 23.7326C52.2901 21.9581 52.7728 20.2608 53.2148 18.5527C53.3671 17.9635 53.5389 17.3388 53.4912 16.7469C53.3916 15.5199 52.6208 15.2699 51.4907 15.6496C50.3319 16.0389 49.9159 17.1046 49.6147 18.1799C49.1262 19.9228 48.6711 21.6745 48.1803 23.4166C48.1442 23.5462 47.9387 23.7141 47.8081 23.7175C46.8656 23.7434 45.922 23.7314 44.9043 23.7314C45.0648 23.1017 45.2044 22.5137 45.3649 21.9311C45.8999 19.9942 46.4465 18.0603 46.9811 16.1226C47.532 14.1255 48.0721 12.1253 48.6214 10.1274C48.8967 9.12693 48.9014 9.12809 49.9369 9.12269C50.1071 9.12153 50.2784 9.11382 50.4482 9.12693C51.4907 9.20719 51.9129 9.82068 51.6311 10.8351C51.4333 11.545 51.2368 12.2546 51.0457 12.9664C51.0158 13.0787 51.0162 13.1991 50.9999 13.3353C51.5814 13.1235 52.1064 12.841 52.6635 12.7477C53.9444 12.5328 55.2156 12.5173 56.1434 13.671C56.6024 14.2413 56.797 14.9192 56.8586 15.6338C56.9874 17.1289 56.4647 18.5129 56.0926 19.9212C55.7937 21.0487 55.4781 22.1715 55.1838 23.3C55.1024 23.6122 54.9648 23.7522 54.6116 23.7414C53.7001 23.7148 52.7871 23.7326 51.8036 23.7326Z" fill="white"/>
<path fill-rule="evenodd" clip-rule="evenodd" d="M62.4019 12.8968C62.1994 13.6508 62.0139 14.3296 61.8335 15.01C61.4305 16.528 61.0076 18.0413 60.6348 19.5666C60.3443 20.7559 61.4565 21.2848 62.2269 21.1601C63.3337 20.9805 64.0738 20.3493 64.3776 19.2476C64.9257 17.2587 65.4715 15.2687 66.0332 13.2833C66.0751 13.1361 66.2365 12.9158 66.3475 12.9127C67.32 12.8833 68.2937 12.8957 69.3252 12.8957C69.1184 13.6744 68.9388 14.3869 68.7402 15.094C68.2828 16.7235 67.8895 18.3755 67.3363 19.9721C66.626 22.0214 65.1038 23.2489 63.0101 23.7895C61.6605 24.138 60.3222 24.1938 59.0052 23.6636C57.8367 23.1928 57.2525 22.3215 57.1974 21.0595C57.1544 20.0635 57.4628 19.1426 57.7141 18.2067C58.1579 16.557 58.6048 14.9078 59.0653 13.2628C59.1041 13.1245 59.2534 12.9154 59.3555 12.9127C60.3427 12.886 61.3308 12.8968 62.4019 12.8968Z" fill="white"/>
<path fill-rule="evenodd" clip-rule="evenodd" d="M44.2343 13.0691H46.1643C46.1204 14.6083 45.1156 15.5622 43.5504 15.551C43.3184 16.3707 43.0771 17.2062 42.8454 18.0449C42.6288 18.8291 42.4252 19.6164 42.2108 20.4014C42.0346 21.0469 42.1131 21.151 42.7977 21.1537C43.0898 21.1548 43.3823 21.1591 43.6744 21.1645C43.7036 21.1648 43.7321 21.1818 43.8464 21.2184C43.7244 21.7042 43.6009 22.1974 43.4754 22.6901C43.4642 22.7345 43.4373 22.775 43.4238 22.8185C43.1383 23.7412 43.1379 23.7574 42.1546 23.7381C41.2803 23.7208 40.404 23.6911 39.5339 23.6128C38.9216 23.5573 38.5441 23.1644 38.6087 22.5594C38.6996 21.7108 38.8708 20.8641 39.0894 20.0378C39.7844 17.4145 40.5175 14.8007 41.2353 12.1831C41.4746 11.3098 41.7021 10.433 41.9614 9.56551C41.9965 9.44868 42.1816 9.30525 42.3036 9.29908C42.81 9.27171 43.3207 9.26554 43.826 9.30217C44.5899 9.35769 45.0167 9.99194 44.8273 10.7357C44.6357 11.4879 44.4448 12.2406 44.2343 13.0691Z" fill="white"/>
<path fill-rule="evenodd" clip-rule="evenodd" d="M33.0869 23.5703C33.307 22.7423 33.5062 21.9764 33.7143 21.2135C34.254 19.2334 34.7968 17.2542 35.3403 15.2761C35.5187 14.6261 35.6893 13.9734 35.8982 13.3334C35.9383 13.2113 36.136 13.0687 36.2684 13.0614C36.7753 13.0321 37.2857 13.041 37.7937 13.061C38.5095 13.0892 39.0361 13.7349 38.8589 14.4238C38.4504 16.0101 38.0057 17.5867 37.5733 19.1664C37.2258 20.4359 36.8545 21.6993 36.5367 22.9754C36.4252 23.4216 36.2568 23.6073 35.7692 23.5826C34.8975 23.5387 34.0219 23.5703 33.0869 23.5703ZM36.4446 11.0242C36.443 9.85213 37.7155 8.78255 38.8679 8.98753C39.5134 9.10235 39.8878 9.56932 39.8604 10.2239C39.8129 11.344 38.5536 12.3673 37.4437 12.1878C36.7878 12.0814 36.4454 11.6827 36.4446 11.0242Z" fill="white"/>
</svg>
