<svg width="125" height="20" viewBox="0 0 125 20" fill="none" xmlns="http://www.w3.org/2000/svg">
<path d="M5.87846 19.9841C2.94086 19.9841 0.0654297 17.8254 0.0654297 12.9524C0.0654297 8.06351 2.94086 5.93652 5.87846 5.93652C7.32395 5.93652 8.45858 6.31748 9.2668 6.85716L8.38086 8.84129C7.83686 8.44446 7.02863 8.19049 6.2204 8.19049C4.44852 8.19049 2.83206 9.61907 2.83206 12.9207C2.83206 16.2222 4.49515 17.6826 6.2204 17.6826C7.02863 17.6826 7.83686 17.4286 8.38086 17.0318L9.2668 19.0635C8.42749 19.6349 7.32395 19.9841 5.87846 19.9841Z" fill="#FCFCFC"/>
<path d="M15.9976 19.9841C12.2518 19.9841 10.1846 16.9524 10.1846 12.9524C10.1846 8.9524 12.2362 5.93652 15.9976 5.93652C19.7434 5.93652 21.8106 8.93652 21.8106 12.9524C21.8106 16.9524 19.7434 19.9841 15.9976 19.9841ZM15.9976 8.11113C13.9149 8.11113 12.889 10.0159 12.889 12.9207C12.889 15.8254 13.9149 17.7461 15.9976 17.7461C18.0803 17.7461 19.1062 15.8254 19.1062 12.9207C19.1062 10.0159 18.0803 8.11113 15.9976 8.11113Z" fill="#FCFCFC"/>
<path d="M25.4154 3.76199C24.5294 3.76199 23.8145 3.06358 23.8145 2.20643C23.8145 1.34929 24.5294 0.650879 25.4154 0.650879C26.3013 0.650879 27.0163 1.34929 27.0163 2.20643C27.0163 3.06358 26.2858 3.76199 25.4154 3.76199ZM24.0631 6.20643H26.7676V19.6985H24.0631V6.20643Z" fill="#FCFCFC"/>
<path d="M37.3686 19.6984V10.6984C37.3686 9.127 36.436 8.14287 34.602 8.14287C33.6228 8.14287 32.7213 8.31748 32.1773 8.5397V19.7143H29.5039V6.8889C30.825 6.33335 32.5192 5.93652 34.5864 5.93652C38.2856 5.93652 40.073 7.58732 40.073 10.4445V19.7143H37.3686" fill="#FCFCFC"/>
<path d="M47.1757 19.9841C45.466 19.9841 43.7718 19.5555 42.7305 19.0317V0.0476074H45.4038V6.55554C46.0411 6.25396 47.0669 5.99999 47.984 5.99999C51.3878 5.99999 53.7037 8.50792 53.7037 12.6349C53.7037 17.7301 51.1236 19.9841 47.1757 19.9841ZM47.5177 8.14285C46.7872 8.14285 45.9168 8.31745 45.4038 8.58729V17.4444C45.7924 17.619 46.554 17.7936 47.3156 17.7936C49.445 17.7936 51.0148 16.2857 51.0148 12.8413C51.0304 9.88888 49.6626 8.14285 47.5177 8.14285Z" fill="#FCFCFC"/>
<path d="M60.9785 19.9841C57.1861 19.9841 55.2588 18.4127 55.2588 15.7461C55.2588 11.9841 59.1756 11.3175 63.1701 11.0953V10.2381C63.1701 8.5397 62.0665 7.93652 60.3724 7.93652C59.129 7.93652 57.6058 8.33335 56.7198 8.76192L56.0359 6.8889C57.0928 6.41271 58.8803 5.93652 60.6522 5.93652C63.8073 5.93652 65.7347 7.19049 65.7347 10.5238V19.0318C64.7865 19.5556 62.8437 19.9841 60.9785 19.9841ZM63.1856 12.9207C60.4812 13.0635 57.7923 13.3016 57.7923 15.6984C57.7923 17.127 58.8647 18 60.9008 18C61.7557 18 62.766 17.8572 63.1856 17.6508V12.9207Z" fill="#FCFCFC"/>
<path d="M71.7644 19.9841C70.2256 19.9841 68.6092 19.5556 67.6455 19.0318L68.547 16.9365C69.2309 17.3651 70.6764 17.8095 71.6867 17.8095C73.1321 17.8095 74.0958 17.0794 74.0958 15.9524C74.0958 14.7302 73.0855 14.254 71.7488 13.7461C69.9769 13.0635 68.003 12.2381 68.003 9.7143C68.003 7.49208 69.6972 5.93652 72.6348 5.93652C74.2357 5.93652 75.5568 6.33335 76.4894 6.8889L75.6501 8.79367C75.0595 8.41272 73.8782 8.00002 72.9301 8.00002C71.5312 8.00002 70.7541 8.74605 70.7541 9.73018C70.7541 10.9524 71.7333 11.381 73.0389 11.8889C74.8729 12.5873 76.9091 13.3651 76.9091 16C76.8935 18.3968 75.075 19.9841 71.7644 19.9841Z" fill="#FCFCFC"/>
<path d="M89.9338 12.8889L81.1521 14.1429C81.4163 16.5715 82.9706 17.7937 85.1932 17.7937C86.5143 17.7937 87.9443 17.4603 88.8458 16.9683L89.6229 19.0159C88.5971 19.5715 86.8252 19.9683 85.0067 19.9683C80.8412 19.9683 78.5098 17.2381 78.5098 12.9365C78.5098 8.80954 80.7635 5.92065 84.4627 5.92065C87.8977 5.92065 89.9338 8.22224 89.9338 11.8572C89.9649 12.1905 89.9649 12.5397 89.9338 12.8889ZM84.4471 7.93653C82.3955 7.93653 81.0433 9.5397 80.9966 12.3492L87.4003 11.4445C87.3692 9.09526 86.2035 7.93653 84.4471 7.93653Z" fill="#FCFCFC"/>
<path d="M99.4062 15.6357V19.8105H98V9.14648H101.933C103.1 9.14648 104.013 9.44434 104.672 10.04C105.336 10.6357 105.668 11.4243 105.668 12.4058C105.668 13.4409 105.344 14.2393 104.694 14.8008C104.05 15.3574 103.125 15.6357 101.918 15.6357H99.4062ZM99.4062 14.4858H101.933C102.685 14.4858 103.261 14.3101 103.662 13.9585C104.062 13.6021 104.262 13.0894 104.262 12.4204C104.262 11.7856 104.062 11.2778 103.662 10.897C103.261 10.5161 102.712 10.3184 102.014 10.3037H99.4062V14.4858Z" fill="white"/>
<path d="M111.374 15.4966H108.869V19.8105H107.456V9.14648H110.986C112.187 9.14648 113.11 9.41992 113.754 9.9668C114.404 10.5137 114.729 11.3096 114.729 12.3545C114.729 13.0186 114.548 13.5972 114.187 14.0903C113.83 14.5835 113.332 14.9521 112.692 15.1963L115.197 19.7227V19.8105H113.688L111.374 15.4966ZM108.869 14.3467H111.03C111.728 14.3467 112.282 14.166 112.692 13.8047C113.107 13.4434 113.315 12.96 113.315 12.3545C113.315 11.6953 113.117 11.1899 112.722 10.8384C112.331 10.4868 111.765 10.3086 111.022 10.3037H108.869V14.3467Z" fill="white"/>
<path d="M124.909 14.8228C124.909 15.8677 124.733 16.7808 124.382 17.562C124.03 18.3384 123.532 18.9316 122.888 19.3418C122.243 19.752 121.491 19.957 120.632 19.957C119.792 19.957 119.047 19.752 118.398 19.3418C117.749 18.9268 117.243 18.3384 116.882 17.5767C116.525 16.8101 116.342 15.9238 116.333 14.918V14.1489C116.333 13.1235 116.511 12.2178 116.867 11.4316C117.224 10.6455 117.727 10.0449 118.376 9.62988C119.03 9.20996 119.777 9 120.617 9C121.472 9 122.224 9.20752 122.873 9.62256C123.527 10.0327 124.03 10.6309 124.382 11.417C124.733 12.1982 124.909 13.1089 124.909 14.1489V14.8228ZM123.51 14.1343C123.51 12.8696 123.256 11.9004 122.749 11.2266C122.241 10.5479 121.53 10.2085 120.617 10.2085C119.729 10.2085 119.028 10.5479 118.515 11.2266C118.007 11.9004 117.746 12.8379 117.731 14.0391V14.8228C117.731 16.0483 117.988 17.0127 118.5 17.7158C119.018 18.4141 119.729 18.7632 120.632 18.7632C121.54 18.7632 122.243 18.4336 122.741 17.7744C123.239 17.1104 123.496 16.1606 123.51 14.9253V14.1343Z" fill="white"/>
</svg>
