<svg width="104" height="24" viewBox="0 0 104 24" fill="none" xmlns="http://www.w3.org/2000/svg">
<g clip-path="url(#clip0)">
<path d="M81.8043 12.0001C81.8043 11.3874 81.8043 10.8114 81.7845 10.2806C81.7702 9.77792 81.7202 9.27689 81.6348 8.7813C81.5547 8.32935 81.4131 7.89047 81.2141 7.47683C81.0048 7.05006 80.7251 6.66157 80.3868 6.32765C79.9025 5.83639 79.3271 5.44415 78.6927 5.17283C78.0106 4.89633 77.28 4.75905 76.544 4.76907C75.8044 4.75966 75.0703 4.89689 74.384 5.17283C73.7495 5.44377 73.174 5.83605 72.6899 6.32765C72.3534 6.66245 72.0748 7.05079 71.8654 7.47683C71.6692 7.89083 71.5305 8.32972 71.4532 8.7813C71.3698 9.27704 71.3217 9.77806 71.3092 10.2806C71.3092 10.8114 71.2894 11.3874 71.2923 12.0001C71.2951 12.6128 71.2923 13.186 71.3092 13.7225C71.3219 14.2241 71.37 14.7241 71.4532 15.219C71.5305 15.6705 71.6692 16.1094 71.8654 16.5234C72.0748 16.9495 72.3534 17.3378 72.6899 17.6726C73.1726 18.1652 73.7485 18.5568 74.384 18.8246C75.0701 19.1015 75.8042 19.2397 76.544 19.2312C77.2802 19.2403 78.0108 19.1021 78.6927 18.8246C79.3281 18.5565 79.9039 18.1649 80.3868 17.6726C80.7251 17.3387 81.0048 16.9502 81.2141 16.5234C81.4131 16.1098 81.5547 15.6709 81.6348 15.219C81.7201 14.7243 81.7701 14.2242 81.7845 13.7225C81.8014 13.186 81.808 12.6119 81.8043 12.0001ZM79.0287 12.0001C79.0287 12.6778 79.0287 13.2453 78.9948 13.6942C78.9812 14.0643 78.9435 14.4331 78.8819 14.7982C78.8415 15.0413 78.7684 15.2778 78.6645 15.5013C78.5767 15.6813 78.4636 15.8477 78.3285 15.9954C78.1228 16.2367 77.8663 16.4295 77.5774 16.5601C77.2537 16.6992 76.9048 16.7704 76.5525 16.7691C76.1974 16.77 75.8459 16.6989 75.5191 16.5601C75.2252 16.4312 74.9638 16.2382 74.7539 15.9954C74.6188 15.8483 74.5065 15.6817 74.4207 15.5013C74.3175 15.2783 74.2471 15.0415 74.2118 14.7982C74.1525 14.4329 74.1167 14.0642 74.1045 13.6942C74.0847 13.2453 74.0763 12.6778 74.0763 12.0001C74.0763 11.3225 74.0763 10.7549 74.1045 10.306C74.1167 9.9361 74.1525 9.56734 74.2118 9.20201C74.2471 8.95878 74.3175 8.72197 74.4207 8.49895C74.5065 8.31852 74.6188 8.15196 74.7539 8.00483C74.9638 7.76202 75.2252 7.5691 75.5191 7.44013C75.8455 7.29995 76.1973 7.22881 76.5525 7.23118C76.905 7.2285 77.2541 7.29968 77.5774 7.44013C77.8663 7.57072 78.1228 7.76356 78.3285 8.00483C78.4636 8.15259 78.5767 8.319 78.6645 8.49895C78.7684 8.7224 78.8415 8.95891 78.8819 9.20201C78.9435 9.56717 78.9812 9.93595 78.9948 10.306C79.0174 10.7549 79.0287 11.3225 79.0287 12.0001Z" fill="white"/>
<path d="M103.935 5.1332C103.934 5.06878 103.907 5.00743 103.862 4.96213C103.816 4.91682 103.754 4.8911 103.69 4.89038H101.403C101.338 4.89038 101.276 4.91587 101.23 4.96133C101.184 5.00679 101.158 5.06855 101.157 5.1332V13.6038L95.5693 4.96379C95.5326 4.9045 95.5015 4.89603 95.4168 4.89603H93.2935C93.2291 4.89674 93.1674 4.92247 93.1216 4.96778C93.0757 5.01308 93.0493 5.07442 93.0479 5.13885V18.8669C93.0493 18.9313 93.0757 18.9926 93.1216 19.0379C93.1674 19.0832 93.2291 19.109 93.2935 19.1097H95.5806C95.6452 19.1097 95.7073 19.0842 95.7533 19.0387C95.7992 18.9933 95.8255 18.9315 95.8262 18.8669V10.3963L101.414 19.056C101.451 19.1153 101.485 19.1238 101.566 19.1238H103.69C103.754 19.1231 103.816 19.0974 103.862 19.052C103.907 19.0067 103.934 18.9454 103.935 18.881V5.1332Z" fill="white"/>
<path d="M88.3325 4.89038H86.0426C85.9085 4.89038 85.7998 4.9991 85.7998 5.1332V18.8669C85.7998 19.001 85.9085 19.1097 86.0426 19.1097H88.3325C88.4666 19.1097 88.5753 19.001 88.5753 18.8669V5.1332C88.5753 4.9991 88.4666 4.89038 88.3325 4.89038Z" fill="white"/>
<path d="M61.1724 12C61.1724 11.3167 61.1724 10.7492 61.1978 10.3059C61.21 9.93598 61.2458 9.56723 61.3051 9.2019C61.3912 8.74408 61.6083 8.32106 61.9299 7.9841C62.2516 7.64714 62.6641 7.41069 63.1174 7.30341C63.5707 7.19613 64.0454 7.22262 64.484 7.37967C64.9226 7.53672 65.3062 7.81759 65.5884 8.18825C65.7927 8.49402 65.9418 8.83328 66.0289 9.1906C66.0317 9.20907 66.0414 9.22578 66.0561 9.23732C66.0708 9.24886 66.0893 9.25437 66.1079 9.25272H68.8044C68.8439 9.25272 68.858 9.22731 68.8496 9.18778C68.5672 7.5219 67.6665 6.0226 66.0966 5.28001C65.3232 4.92445 64.4801 4.74599 63.6289 4.75766C62.9172 4.74168 62.2097 4.87173 61.5503 5.1398C60.8908 5.40787 60.2932 5.80826 59.7945 6.31625C59.202 6.89574 58.7985 7.64079 58.6369 8.45366C58.45 9.62232 58.3697 10.8055 58.3969 11.9887C58.3693 13.1738 58.4497 14.3589 58.6369 15.5294C58.7985 16.3423 59.202 17.0873 59.7945 17.6668C60.2932 18.1748 60.8908 18.5752 61.5503 18.8433C62.2097 19.1114 62.9172 19.2414 63.6289 19.2254C64.4801 19.2371 65.3232 19.0586 66.0966 18.7031C67.6665 17.9605 68.5559 16.4612 68.8496 14.7953C68.8496 14.7558 68.8496 14.7304 68.8044 14.7304H66.1079C66.0893 14.7287 66.0708 14.7342 66.0561 14.7458C66.0414 14.7573 66.0317 14.774 66.0289 14.7925C65.9445 15.1559 65.7953 15.5012 65.5884 15.8118C65.3077 16.1823 64.9259 16.4636 64.4889 16.6219C64.0519 16.7802 63.5785 16.8087 63.1257 16.7039C62.6729 16.5992 62.26 16.3656 61.937 16.0314C61.614 15.6973 61.3945 15.2768 61.3051 14.8207C61.2458 14.4554 61.21 14.0866 61.1978 13.7167C61.1781 13.2508 61.1724 12.6833 61.1724 12Z" fill="white"/>
<path d="M32.7111 5.13323C32.7111 5.06883 32.6855 5.00707 32.64 4.96153C32.5944 4.91599 32.5327 4.89041 32.4683 4.89041H30.1784C30.114 4.89041 30.0522 4.91599 30.0067 4.96153C29.9611 5.00707 29.9355 5.06883 29.9355 5.13323V18.8669C29.9355 18.9313 29.9611 18.993 30.0067 19.0386C30.0522 19.0841 30.114 19.1097 30.1784 19.1097H32.4711C32.5355 19.1097 32.5972 19.0841 32.6428 19.0386C32.6883 18.993 32.7139 18.9313 32.7139 18.8669V14.8349L34.552 12.6382L38.3243 19.0391C38.3395 19.0616 38.3602 19.0799 38.3844 19.0922C38.4085 19.1045 38.4355 19.1106 38.4626 19.1097H41.2438C41.3708 19.1097 41.3963 19.0306 41.3313 18.9205L36.3901 10.5431L40.9078 5.105C41.001 4.99488 40.9614 4.89041 40.8174 4.89041H37.7878C37.7699 4.8886 37.7518 4.89156 37.7355 4.899C37.7191 4.90644 37.705 4.91809 37.6946 4.93276L32.7111 10.9102V5.13323Z" fill="white"/>
<path d="M49.3863 16.7549C48.0988 16.7549 46.9326 15.5605 46.9326 14.1374V5.1332C46.9319 5.06855 46.9057 5.00679 46.8597 4.96133C46.8137 4.91587 46.7517 4.89038 46.687 4.89038H44.3999C44.3353 4.89038 44.2732 4.91587 44.2272 4.96133C44.1812 5.00679 44.155 5.06855 44.1543 5.1332V14.1177C44.1543 17.2518 46.5006 19.2452 49.3863 19.2452C52.2719 19.2452 54.6211 17.2377 54.6211 14.1177V5.1332C54.6204 5.06855 54.5942 5.00679 54.5482 4.96133C54.5022 4.91587 54.4401 4.89038 54.3755 4.89038H52.0884C52.0237 4.89038 51.9617 4.91587 51.9157 4.96133C51.8697 5.00679 51.8435 5.06855 51.8428 5.1332V14.1374C51.8428 15.5605 50.6766 16.7549 49.3863 16.7549Z" fill="white"/>
<path fill-rule="evenodd" clip-rule="evenodd" d="M6.92666 12.0001L14.0335 19.1069L18.5172 14.6232C18.8995 14.2427 19.4173 14.0298 19.9566 14.0311C20.4959 14.0324 21.0126 14.2479 21.393 14.6302C21.7734 15.0125 21.9864 15.5303 21.9851 16.0696C21.9837 16.6089 21.7682 17.1256 21.386 17.506L15.4565 23.4354C15.0741 23.812 14.5589 24.0231 14.0222 24.0231C13.4855 24.0231 12.9703 23.812 12.5878 23.4354L4.05795 14.8716V19.954C4.06774 20.2268 4.02242 20.4987 3.9247 20.7536C3.82697 21.0085 3.67885 21.241 3.48919 21.4374C3.29953 21.6337 3.07223 21.7897 2.82087 21.8962C2.56952 22.0026 2.29928 22.0573 2.02632 22.0569C1.75335 22.0565 1.48326 22.0011 1.23221 21.894C0.981152 21.7868 0.754285 21.6301 0.565172 21.4333C0.37606 21.2364 0.228586 21.0035 0.13157 20.7483C0.0345548 20.4932 -0.0100102 20.2211 0.000540566 19.9483V4.05187C0.0201281 3.52692 0.242439 3.03 0.620754 2.66554C0.999069 2.30108 1.50393 2.09745 2.02925 2.09745C2.55456 2.09745 3.05942 2.30108 3.43774 2.66554C3.81605 3.03 4.03836 3.52692 4.05795 4.05187V9.13422L12.5991 0.590221C12.9808 0.212265 13.4963 0.000244141 14.0335 0.000244141C14.5707 0.000244141 15.0861 0.212265 15.4678 0.590221L21.3972 6.51963C21.7762 6.90154 21.9878 7.41834 21.9857 7.95632C21.9836 8.49431 21.7679 9.00942 21.386 9.38834C21.004 9.76725 20.4872 9.97894 19.9493 9.97682C19.4113 9.9747 18.8962 9.75896 18.5172 9.37704L14.0335 4.89328L6.92666 12.0001ZM14.0363 9.96999C13.6348 9.96999 13.2423 10.0891 12.9084 10.3121C12.5746 10.5352 12.3144 10.8523 12.1607 11.2232C12.0071 11.5942 11.9669 12.0024 12.0452 12.3962C12.1235 12.79 12.3169 13.1517 12.6008 13.4356C12.8847 13.7195 13.2464 13.9129 13.6403 13.9912C14.0341 14.0695 14.4422 14.0293 14.8132 13.8757C15.1842 13.722 15.5012 13.4618 15.7243 13.128C15.9474 12.7941 16.0664 12.4016 16.0664 12.0001C16.0664 11.4617 15.8525 10.9453 15.4718 10.5646C15.0911 10.1839 14.5747 9.96999 14.0363 9.96999Z" fill="white"/>
</g>
<defs>
<clipPath id="clip0">
<rect width="103.934" height="24" fill="white"/>
</clipPath>
</defs>
</svg>
