<svg width="102" height="16" viewBox="0 0 102 16" fill="none" xmlns="http://www.w3.org/2000/svg">
<path fill-rule="evenodd" clip-rule="evenodd" d="M97.5666 6.50584L101.736 0.199707H97.1839L95.2246 3.07302L97.5666 6.50584Z" fill="#FCFCFC"/>
<path fill-rule="evenodd" clip-rule="evenodd" d="M97.5574 9.42212L95.2246 12.683L97.4307 15.7672H101.971L97.5574 9.42212Z" fill="#FCFCFC"/>
<path fill-rule="evenodd" clip-rule="evenodd" d="M3.51675 2.84983V7.88448H7.03982C7.43479 7.88448 7.76034 7.84829 8.01731 7.77604C8.27376 7.70339 8.47759 7.59145 8.62925 7.44007C8.78047 7.28872 8.88599 7.0908 8.94505 6.84727C9.00411 6.60368 9.03386 5.13181 9.03386 4.79604C9.03386 4.46028 9.00753 4.16868 8.95496 3.9218C8.90221 3.67468 8.80005 3.47214 8.64906 3.3141C8.49737 3.15606 8.28858 3.03904 8.02203 2.96333C7.75528 2.88765 7.40505 2.84983 6.97083 2.84983H3.51675ZM8.16515 0.202148C9.67869 0.202148 10.7892 0.582157 11.4967 1.34291C12.2042 2.10359 12.558 3.72907 12.558 5.24408C12.558 6.77888 12.1892 8.61908 11.4522 9.37637C10.7152 10.1339 9.61937 10.5126 8.16515 10.5126H3.51675V15.7745H0.0224609V0.202148H8.16515Z" fill="#FCFCFC"/>
<path fill-rule="evenodd" clip-rule="evenodd" d="M20.3124 3.01767C19.7602 3.01767 19.2935 3.05579 18.9126 3.1314C18.5314 3.20731 18.2193 3.3522 17.9762 3.56612C17.7331 3.78024 17.5572 4.08142 17.449 4.47007C17.3405 4.85863 17.2862 5.79671 17.2862 6.42261V9.57401C17.2862 10.1999 17.3405 11.1361 17.449 11.5216C17.5572 11.9065 17.7331 12.2081 17.9762 12.4252C18.2193 12.6426 18.5314 12.7895 18.9126 12.865C19.2935 12.9407 19.7602 12.9785 20.3124 12.9785H20.5372C21.0893 12.9785 21.5557 12.9407 21.9367 12.865C22.318 12.7895 22.6303 12.6445 22.8733 12.4306C23.1163 12.2164 23.2923 11.9151 23.4007 11.5263C23.509 11.138 23.5632 10.1999 23.5632 9.57401V6.40281C23.5632 5.77689 23.509 4.8407 23.4007 4.45544C23.2923 4.07004 23.1179 3.77033 22.8782 3.55618C22.6384 3.34229 22.3261 3.19916 21.9419 3.12654C21.5574 3.05412 21.0893 3.01767 20.5372 3.01767H20.3124ZM13.7227 5.33953C13.7227 4.39111 13.8362 3.58076 14.0631 2.90923C14.2904 2.23729 14.6423 1.6875 15.1196 1.25923C15.5965 0.831155 16.2053 0.518374 16.9458 0.320652C17.6858 0.122931 18.5727 0.0241699 19.6062 0.0241699H21.2633C22.3031 0.0241699 23.1932 0.1215 23.9335 0.315729C24.6741 0.510024 25.2807 0.819513 25.7548 1.24439C26.2286 1.66911 26.5754 2.21926 26.7963 2.89416C27.0167 3.56952 27.1268 4.38472 27.1268 5.33953V10.2063C27.1268 11.1549 27.0148 12.3957 26.7912 13.0676C26.5675 13.7395 26.2187 14.2893 25.7449 14.7174C25.271 15.1456 24.6639 15.4584 23.9235 15.656C23.1835 15.8539 22.2964 15.9524 21.2633 15.9524H19.6062C18.5727 15.9524 17.6858 15.8539 16.9458 15.656C16.2053 15.4584 15.5965 15.1456 15.1196 14.7174C14.6423 14.2893 14.2904 13.7395 14.0631 13.0676C13.8362 12.3957 13.7227 11.1549 13.7227 10.2063V5.33953Z" fill="#FCFCFC"/>
<path fill-rule="evenodd" clip-rule="evenodd" d="M32.0825 12.7811H38.0577V15.7744H28.5879V0.202148H32.0825V12.7811Z" fill="#FCFCFC"/>
<path fill-rule="evenodd" clip-rule="evenodd" d="M45.3983 3.01767C44.8461 3.01767 44.3795 3.05579 43.9984 3.1314C43.6172 3.20731 43.3051 3.3522 43.062 3.56612C42.8188 3.78024 42.6432 4.08142 42.5346 4.47007C42.4263 4.85863 42.372 5.79671 42.372 6.42261V9.57401C42.372 10.1999 42.4263 11.1361 42.5346 11.5216C42.6432 11.9065 42.8188 12.2081 43.062 12.4252C43.3051 12.6426 43.6172 12.7895 43.9984 12.865C44.3795 12.9407 44.8461 12.9785 45.3983 12.9785H45.6231C46.1749 12.9785 46.6416 12.9407 47.0228 12.865C47.4039 12.7895 47.716 12.6445 47.9593 12.4306C48.2022 12.2164 48.378 11.9151 48.4865 11.5263C48.5951 11.138 48.6493 10.1999 48.6493 9.57401V6.40281C48.6493 5.77689 48.5951 4.8407 48.4865 4.45544C48.378 4.07004 48.2038 3.77033 47.964 3.55618C47.7242 3.34229 47.4122 3.19916 47.0276 3.12654C46.6432 3.05412 46.1749 3.01767 45.6231 3.01767H45.3983ZM38.8086 5.33953C38.8086 4.39111 38.9219 3.58076 39.149 2.90923C39.3762 2.23729 39.7282 1.6875 40.2053 1.25923C40.6825 0.831155 41.2912 0.518374 42.0316 0.320652C42.7718 0.122931 43.6587 0.0241699 44.6921 0.0241699H46.3492C47.389 0.0241699 48.279 0.1215 49.0192 0.315729C49.7598 0.510024 50.3668 0.819513 50.8405 1.24439C51.3145 1.66911 51.6615 2.21926 51.8823 2.89416C52.1028 3.56952 52.2129 4.38472 52.2129 5.33953V10.2063C52.2129 11.1549 52.1006 12.3957 51.877 13.0676C51.6534 13.7395 51.3046 14.2893 50.8309 14.7174C50.3568 15.1456 49.7499 15.4584 49.0094 15.656C48.2691 15.8539 47.3823 15.9524 46.3492 15.9524H44.6921C43.6587 15.9524 42.7718 15.8539 42.0316 15.656C41.2912 15.4584 40.6825 15.1456 40.2053 14.7174C39.7282 14.2893 39.3762 13.7395 39.149 13.0676C38.9219 12.3957 38.8086 11.1549 38.8086 10.2063V5.33953Z" fill="#FCFCFC"/>
<path fill-rule="evenodd" clip-rule="evenodd" d="M53.873 0.202148H57.8909L63.7115 10.8335V0.202148H66.9887V15.7745H62.9711L57.1505 5.02427V15.7745H53.873V0.202148Z" fill="#FCFCFC"/>
<path fill-rule="evenodd" clip-rule="evenodd" d="M69.1123 15.7745H72.6065V0.202148H69.1123V15.7745Z" fill="#FCFCFC"/>
<path fill-rule="evenodd" clip-rule="evenodd" d="M74.7109 0.202148H85.4596V3.19548H78.2051V6.38291H85.2225V9.35674H78.2051V12.7811H85.4596V15.7745H74.7109V0.202148Z" fill="#FCFCFC"/>
<path fill-rule="evenodd" clip-rule="evenodd" d="M96.5315 7.98833L90.9392 15.7744H86.4072L91.8265 8.00283L86.6539 0.202148H91.2056L96.5315 7.98833Z" fill="#FCFCFC"/>
</svg>
